<svg width="288" height="196" viewBox="0 0 288 196" xmlns="http://www.w3.org/2000/svg" xmlns:xlink="http://www.w3.org/1999/xlink"><defs></defs><rect x="0" y="0" width="288" height="196" fill="#FFFFFF"/><g><g><path d="M133.2 119C127.6 119 123 117.1 119.6 113.4 116.2 109.7 114.5 104.8 114.5 98.9 114.5 92.5 116.2 87.4 119.7 83.6 123.2 79.8 127.9 77.9 133.8 77.9 139.3 77.9 143.7 79.7 147.1 83.4 150.5 87.1 152.1 91.9 152.1 97.9 152.1 104.4 150.4 109.5 146.9 113.3 143.6 117.2 139 119 133.2 119ZM133.6 82.1C129.4 82.1 126 83.6 123.4 86.6 120.8 89.6 119.5 93.6 119.5 98.5 119.5 103.4 120.8 107.3 123.3 110.3 125.8 113.3 129.2 114.8 133.2 114.8 137.6 114.8 141 113.4 143.5 110.5 146 107.7 147.3 103.7 147.3 98.5 147.3 93.2 146.1 89.2 143.6 86.3 141.2 83.6 137.9 82.1 133.6 82.1Z" fill="#E83F24"/><path d="M184.5 79.6C185.6 79.6 186.6 79.8 187.5 80.3L187.5 76.2C186.7 75.9 185.6 75.7 184.2 75.7 181.6 75.7 179.5 76.6 177.8 78.3 176.1 80 175.2 82.4 175.2 85.4L175.2 90 170.5 90 170.4 90 163.9 90 163.9 85.6C163.9 81.6 165.5 79.6 168.7 79.6 169.8 79.6 170.8 79.8 171.7 80.3L171.7 76.2C170.9 75.9 169.8 75.7 168.4 75.7 165.8 75.7 163.7 76.6 162 78.3 160.3 80 159.4 82.4 159.4 85.4L159.4 90 154.5 90 154.5 93.9 159.4 93.9 159.4 118.4 163.9 118.4 163.9 93.9 170.4 93.9 170.5 93.9 175.2 93.9 175.2 118.4 179.7 118.4 179.7 93.9 186.4 93.9 186.4 90 179.7 90 179.7 85.6C179.7 81.6 181.3 79.6 184.5 79.6Z" fill="#E83F24"/><path d="M192.9 82.8C192.1 82.8 191.4 82.5 190.8 82 190.2 81.4 189.9 80.7 189.9 79.9 189.9 79 190.2 78.3 190.8 77.8 191.4 77.2 192.1 77 192.9 77 193.7 77 194.4 77.3 195 77.8 195.6 78.4 195.9 79.1 195.9 79.9 195.9 80.7 195.6 81.4 195 82 194.5 82.5 193.8 82.8 192.9 82.8ZM195.2 118.4 190.7 118.4 190.7 90 195.2 90 195.2 118.4Z" fill="#E83F24"/><path d="M220.6 117.1C218.4 118.4 215.8 119.1 212.8 119.1 208.8 119.1 205.5 117.8 203 115.1 200.5 112.5 199.3 109 199.3 104.8 199.3 100.1 200.6 96.4 203.3 93.5 206 90.7 209.6 89.2 214 89.2 216.5 89.2 218.7 89.7 220.6 90.6L220.6 95.3C218.5 93.8 216.2 93.1 213.8 93.1 210.9 93.1 208.5 94.1 206.7 96.2 204.8 98.3 203.9 101 203.9 104.4 203.9 107.7 204.8 110.4 206.5 112.3 208.2 114.2 210.6 115.2 213.5 115.2 216 115.2 218.3 114.4 220.5 112.7L220.5 117.1Z" fill="#E83F24"/><path d="M248.5 105.3 228.4 105.3C228.5 108.5 229.3 110.9 231 112.6 232.6 114.3 234.9 115.2 237.7 115.2 240.9 115.2 243.8 114.1 246.5 112L246.5 116.3C244 118.1 240.7 119 236.6 119 232.6 119 229.4 117.7 227.1 115.1 224.8 112.5 223.7 108.9 223.7 104.2 223.7 99.8 225 96.2 227.5 93.4 230 90.6 233.1 89.2 236.8 89.2 240.5 89.2 243.4 90.4 245.4 92.8 247.4 95.2 248.5 98.5 248.5 102.8L248.5 105.3ZM243.8 101.5C243.8 98.9 243.1 96.8 241.9 95.4 240.7 93.9 238.9 93.2 236.7 93.2 234.6 93.2 232.7 94 231.2 95.5 229.7 97 228.8 99 228.4 101.5L243.8 101.5Z" fill="#E83F24"/></g><g><path d="M39.5 118.5 75.5 131.4 95.4 125 95.4 71.3 75.5 64.6 39.5 78.5Z" fill="#E83F24"/><path d="M39.5 118.6 52.4 113.2 52.4 81.6 75.7 76.2 75.7 123.3Z" fill="#FFFFFF"/></g></g></svg>