<svg viewBox="0 0 480 480" xmlns="http://www.w3.org/2000/svg" xmlns:xlink="http://www.w3.org/1999/xlink" id="Layer_1" overflow="hidden"><style>
.MsftOfcThm_Accent5_Stroke_v2 {
 stroke:#FFCC3F; 
}
</style>
<g><g><path d="M376 136C376 61.008 314.992 0 240 0 165.008 0 104 61.008 104 136 104 175.56 121.496 213.12 151.272 238.84 146.8 243.208 144 249.272 144 256 144 262.168 146.408 267.744 150.24 272 146.4 276.256 144 281.832 144 288 144 294.168 146.408 299.744 150.24 304 146.4 308.256 144 313.832 144 320 144 330.416 150.712 339.216 160 342.528L160 400C160 402.152 160.88 404.16 162.36 405.64L162.344 405.656 234.344 477.656C235.904 479.216 237.952 480 240 480 242.048 480 244.096 479.216 245.656 477.656L317.656 405.656 317.64 405.64C319.12 404.16 320 402.152 320 400L320 342.528C329.288 339.216 336 330.416 336 320 336 313.832 333.592 308.256 329.76 304 333.6 299.744 336 294.168 336 288 336 281.832 333.592 276.256 329.76 272 333.6 267.744 336 262.168 336 256 336 249.272 333.2 243.208 328.728 238.84 358.504 213.12 376 175.56 376 136ZM240 460.688 227.312 448 252.688 448 240 460.688ZM268.688 432 211.312 432 180.56 401.24 192 393.616 211.56 406.656C214.248 408.448 217.744 408.448 220.432 406.656L240 393.616 259.56 406.656C262.248 408.448 265.744 408.448 268.432 406.656L288 393.616 299.44 401.248 268.688 432ZM304 385.048 292.44 377.344C289.752 375.552 286.256 375.552 283.568 377.344L264 390.384 244.44 377.344C241.752 375.552 238.256 375.552 235.568 377.344L216 390.384 196.44 377.344C193.752 375.552 190.256 375.552 187.568 377.344L176 385.048 176 344 304 344 304 385.048ZM312 328 168 328C163.592 328 160 324.408 160 320 160 315.592 163.592 312 168 312L312 312C316.408 312 320 315.592 320 320 320 324.408 316.408 328 312 328ZM312 296 168 296C163.592 296 160 292.408 160 288 160 283.592 163.592 280 168 280L312 280C316.408 280 320 283.592 320 288 320 292.408 316.408 296 312 296ZM312 264 168 264C163.592 264 160 260.408 160 256 160 251.592 163.592 248 168 248L311.968 248 312.064 248.016C316.44 248.048 320 251.608 320 256 320 260.408 316.408 264 312 264ZM214.976 143.016C216.44 144.2 218.224 144.792 220 144.792 221.776 144.792 223.56 144.2 225.024 143.016 234.544 135.336 240 124.024 240 112 240 110.152 239.824 108.328 239.576 106.52 239.504 106 239.408 105.496 239.312 104.976 239.064 103.6 238.744 102.24 238.344 100.904 238.216 100.456 238.104 100.008 237.96 99.568 237.392 97.864 236.728 96.2 235.936 94.592 235.792 94.304 235.616 94.032 235.464 93.736 234.768 92.4 233.984 91.104 233.136 89.856 232.992 89.64 232.888 89.4 232.736 89.184 237.416 87.632 242.6 87.632 247.28 89.184 247.128 89.4 247.024 89.64 246.88 89.856 246.032 91.112 245.256 92.4 244.552 93.736 244.4 94.024 244.224 94.296 244.08 94.592 243.288 96.2 242.616 97.872 242.056 99.568 241.912 100.008 241.8 100.456 241.672 100.904 241.28 102.24 240.96 103.6 240.704 104.976 240.608 105.488 240.512 106 240.44 106.52 240.176 108.328 240 110.152 240 112 240 124.024 245.456 135.336 254.976 143.016 256.44 144.2 258.224 144.792 260 144.792 261.776 144.792 263.56 144.2 265.024 143.016 274.544 135.336 280 124.024 280 112 280 110.152 279.824 108.328 279.576 106.52 279.504 106 279.408 105.496 279.312 104.976 279.064 103.6 278.744 102.24 278.344 100.904 278.216 100.456 278.104 100.008 277.952 99.568 277.384 97.864 276.72 96.2 275.928 94.592 275.784 94.288 275.6 94.008 275.44 93.712 274.752 92.392 273.984 91.12 273.152 89.88 273 89.648 272.888 89.4 272.728 89.176 275.072 88.4 277.504 88 280 88 292.784 88 304 100.024 304 113.744 304 125.504 298.816 136.576 289.776 144.104L258.88 169.856C257.056 171.376 256 173.624 256 176L256 232 224 232 224 176C224 173.624 222.944 171.376 221.12 169.856L190.224 144.104C181.184 136.568 176 125.504 176 113.744 176 100.024 187.216 88 200 88 202.488 88 204.928 88.4 207.264 89.176 207.104 89.4 206.992 89.656 206.84 89.88 206 91.12 205.24 92.392 204.552 93.712 204.4 94.008 204.216 94.288 204.064 94.592 203.272 96.2 202.608 97.864 202.04 99.568 201.896 100.008 201.784 100.464 201.648 100.904 201.256 102.24 200.936 103.6 200.68 104.976 200.584 105.488 200.488 106 200.416 106.52 200.176 108.328 200 110.152 200 112 200 124.024 205.456 135.336 214.976 143.016ZM216 112C216 110.408 216.224 108.848 216.536 107.312 216.616 106.944 216.696 106.568 216.792 106.208 217.176 104.712 217.664 103.24 218.336 101.84 218.392 101.736 218.456 101.632 218.512 101.528 218.928 100.704 219.488 99.952 220 99.176 220.512 99.952 221.072 100.704 221.488 101.528 221.536 101.632 221.608 101.728 221.664 101.832 222.336 103.224 222.824 104.696 223.208 106.2 223.304 106.568 223.384 106.936 223.464 107.304 223.776 108.848 224 110.408 224 112 224 113.592 223.776 115.152 223.464 116.688 223.384 117.056 223.304 117.432 223.208 117.792 222.824 119.288 222.336 120.76 221.664 122.16 221.616 122.264 221.544 122.368 221.488 122.472 221.072 123.296 220.512 124.048 220 124.824 219.488 124.048 218.928 123.296 218.512 122.472 218.456 122.368 218.384 122.264 218.336 122.16 217.664 120.76 217.176 119.288 216.792 117.792 216.696 117.424 216.616 117.056 216.536 116.688 216.224 115.152 216 113.592 216 112ZM256 112C256 110.408 256.224 108.848 256.536 107.312 256.616 106.944 256.696 106.568 256.792 106.208 257.176 104.712 257.664 103.24 258.336 101.84 258.392 101.736 258.456 101.632 258.512 101.528 258.928 100.704 259.488 99.952 260 99.176 260.512 99.952 261.072 100.704 261.488 101.528 261.536 101.632 261.608 101.728 261.664 101.832 262.336 103.224 262.824 104.696 263.208 106.2 263.304 106.568 263.384 106.936 263.464 107.304 263.776 108.848 264 110.408 264 112 264 113.592 263.776 115.152 263.464 116.688 263.384 117.056 263.304 117.432 263.208 117.792 262.824 119.288 262.336 120.76 261.664 122.16 261.616 122.264 261.544 122.368 261.488 122.472 261.072 123.296 260.512 124.048 260 124.824 259.488 124.048 258.928 123.296 258.512 122.472 258.456 122.368 258.384 122.264 258.336 122.16 257.664 120.76 257.176 119.288 256.792 117.792 256.696 117.424 256.616 117.056 256.536 116.688 256.224 115.152 256 113.592 256 112ZM311.824 232 272 232 272 179.744 300.016 156.392C312.72 145.816 320 130.264 320 113.744 320 91.12 301.68 72 280 72 272.896 72 266.088 73.952 259.976 77.576 247.664 70.44 232.352 70.44 220.032 77.576 213.912 73.952 207.104 72 200 72 178.32 72 160 91.12 160 113.744 160 130.264 167.28 145.816 179.984 156.4L208 179.744 208 232 168.176 232C137.96 209.344 120 173.68 120 136 120 69.832 173.832 16 240 16 306.168 16 360 69.832 360 136 360 173.68 342.04 209.344 311.824 232Z" class="MsftOfcThm_Accent5_Stroke_v2" stroke="#FFCC3F" stroke-width="9.41176" fill="#FFFFFF"/></g></g><g><g><rect x="361.368" y="16.013" width="45.256" height="16" class="MsftOfcThm_Accent5_Stroke_v2" stroke="#FFCC3F" stroke-width="9.41176" fill="#FFFFFF" transform="matrix(0.7071 -0.7071 0.7071 0.7071 95.4905 278.559)"/></g></g><g><g><rect x="375.986" y="225.358" width="16" height="45.256" class="MsftOfcThm_Accent5_Stroke_v2" stroke="#FFCC3F" stroke-width="9.41176" fill="#FFFFFF" transform="matrix(0.7071 -0.7071 0.7071 0.7071 -62.8857 344.152)"/></g></g><g><g><rect x="400" y="128" width="48" height="16" class="MsftOfcThm_Accent5_Stroke_v2" stroke="#FFCC3F" stroke-width="9.41176" fill="#FFFFFF"/></g></g><g><g><rect x="88.002" y="1.376" width="16" height="45.256" class="MsftOfcThm_Accent5_Stroke_v2" stroke="#FFCC3F" stroke-width="9.41176" fill="#FFFFFF" transform="matrix(0.7071 -0.7071 0.7071 0.7071 11.1452 74.9142)"/></g></g><g><g><rect x="73.373" y="239.996" width="45.256" height="16" class="MsftOfcThm_Accent5_Stroke_v2" stroke="#FFCC3F" stroke-width="9.41176" fill="#FFFFFF" transform="matrix(0.7071 -0.7071 0.7071 0.7071 -147.242 140.519)"/></g></g><g><g><rect x="32" y="128" width="48" height="16" class="MsftOfcThm_Accent5_Stroke_v2" stroke="#FFCC3F" stroke-width="9.41176" fill="#FFFFFF"/></g></g><g><g><rect x="336" y="384" width="16" height="16" class="MsftOfcThm_Accent5_Stroke_v2" stroke="#FFCC3F" stroke-width="9.41176" fill="#FFFFFF"/></g></g><g><g><rect x="368" y="384" width="16" height="16" class="MsftOfcThm_Accent5_Stroke_v2" stroke="#FFCC3F" stroke-width="9.41176" fill="#FFFFFF"/></g></g><g><g><rect x="400" y="384" width="16" height="16" class="MsftOfcThm_Accent5_Stroke_v2" stroke="#FFCC3F" stroke-width="9.41176" fill="#FFFFFF"/></g></g><g><g><rect x="64" y="384" width="16" height="16" class="MsftOfcThm_Accent5_Stroke_v2" stroke="#FFCC3F" stroke-width="9.41176" fill="#FFFFFF"/></g></g><g><g><rect x="96" y="384" width="16" height="16" class="MsftOfcThm_Accent5_Stroke_v2" stroke="#FFCC3F" stroke-width="9.41176" fill="#FFFFFF"/></g></g><g><g><rect x="128" y="384" width="16" height="16" class="MsftOfcThm_Accent5_Stroke_v2" stroke="#FFCC3F" stroke-width="9.41176" fill="#FFFFFF"/></g></g><g></g><g></g><g></g><g></g><g></g><g></g><g></g><g></g><g></g><g></g><g></g><g></g><g></g><g></g><g></g></svg>